<?xml version="1.0" standalone="no"?>
<!DOCTYPE svg PUBLIC "-//W3C//DTD SVG 20010904//EN"
 "http://www.w3.org/TR/2001/REC-SVG-20010904/DTD/svg10.dtd">
<svg version="1.0" xmlns="http://www.w3.org/2000/svg"
 width="167.000000pt" height="45.000000pt" viewBox="0 0 167.000000 45.000000"
 preserveAspectRatio="xMidYMid meet">

<g transform="translate(0.000000,45.000000) scale(0.100000,-0.100000)"
fill="#000000" stroke="none">
<path d="M72 420 c-31 -14 -47 -29 -57 -54 -34 -81 -3 -138 95 -176 84 -33 90
-37 90 -66 0 -20 -5 -24 -31 -24 -22 0 -32 5 -36 20 -5 17 -14 20 -68 20 l-64
0 9 -32 c21 -70 83 -103 181 -96 71 5 108 29 128 83 13 32 13 43 0 79 -14 42
-37 58 -149 106 -27 11 -35 21 -35 40 0 33 39 40 55 11 9 -18 20 -21 71 -21
l61 0 -7 28 c-21 87 -142 128 -243 82z"/>
<path d="M817 423 c-4 -3 -7 -21 -7 -40 0 -26 -4 -33 -20 -33 -17 0 -20 -7
-20 -50 0 -43 3 -50 20 -50 18 0 20 -7 20 -57 0 -124 32 -171 124 -180 l56 -6
0 51 c0 48 -2 51 -27 54 -27 3 -28 5 -31 71 l-3 67 31 0 c29 0 30 1 30 50 0
49 -1 50 -30 50 -28 0 -30 2 -30 40 l0 40 -53 0 c-30 0 -57 -3 -60 -7z"/>
<path d="M1087 423 c-4 -3 -7 -21 -7 -40 0 -26 -4 -33 -20 -33 -17 0 -20 -7
-20 -50 0 -43 3 -50 20 -50 18 0 20 -7 20 -57 0 -124 32 -171 124 -180 l56 -6
0 51 c0 48 -2 51 -27 54 -27 3 -28 5 -31 71 l-3 67 31 0 c29 0 30 1 30 50 0
49 -1 50 -30 50 -28 0 -30 2 -30 40 l0 40 -53 0 c-30 0 -57 -3 -60 -7z"/>
<path d="M485 338 c-67 -24 -105 -81 -105 -159 0 -101 68 -169 169 -169 123 0
201 97 170 213 -26 99 -131 151 -234 115z m65 -113 c0 -16 -30 -29 -42 -17 -6
6 -3 16 7 26 18 17 35 13 35 -9z m47 0 c3 -9 3 -18 1 -21 -9 -9 -38 8 -38 22
0 19 29 18 37 -1z m-69 -58 c-2 -11 -8 -22 -15 -24 -13 -5 -27 32 -18 46 10
17 36 -1 33 -22z m80 1 c-2 -13 -7 -23 -13 -23 -5 0 -11 10 -13 23 -2 15 2 22
13 22 11 0 15 -7 13 -22z m-30 -31 c3 -12 -3 -17 -22 -17 -25 0 -35 18 -19 34
12 12 38 2 41 -17z"/>
<path d="M1425 338 c-67 -24 -105 -81 -105 -159 0 -101 68 -169 169 -169 123
0 201 97 170 213 -26 99 -131 151 -234 115z m63 -120 c4 -19 -27 -33 -41 -19
-7 7 -6 16 3 26 15 18 34 15 38 -7z m52 -9 c0 -21 -8 -23 -29 -10 -18 12 -6
42 14 35 8 -3 15 -15 15 -25z m-70 -49 c0 -11 -4 -21 -9 -25 -12 -7 -34 32
-26 45 9 15 35 0 35 -20z m78 3 c-5 -25 -28 -28 -28 -4 0 12 6 21 16 21 9 0
14 -7 12 -17z m-33 -33 c0 -8 -10 -16 -22 -18 -22 -3 -32 16 -16 32 12 11 38
2 38 -14z"/>
</g>
</svg>
